<?xml version="1.0" encoding="UTF-8"?>
<svg id="Layer_1" data-name="Layer 1" xmlns="http://www.w3.org/2000/svg" viewBox="0 0 4547.93 1831.53">
  <defs>
    <style>
      .cls-1 {
        fill: #fff;
      }
    </style>
  </defs>
  <path class="cls-1" d="M1231.57,.66c13.23,49.95,40.69,93.62,62.52,139.6,131.99,277.55,264.98,554.43,397.3,831.65,2.65,5.62,7.94,10.59,4.96,20.51-67.48,0-135.63-.33-203.78,.33-12.9,0-15.22-8.6-18.86-16.87-20.18-44.33-41.35-88.33-60.54-132.98-6.95-15.88-14.89-22.49-33.08-22.49-105.86,.99-212.05,.99-317.91,0-18.19-.33-26.46,6.95-33.08,22.83-18.19,44-38.04,87.66-57.23,131.33-3.97,9.26-6.95,18.19-20.84,18.19-67.48-.66-134.64-.33-206.75-.33,23.82-50.28,46.31-97.26,68.81-144.23,131.66-275.56,262.99-551.13,394.65-826.69,3.31-6.95,4.96-14.56,7.28-21.5l16.54,.66h0Zm-7.94,386.05c-40.36,98.25-78.4,190.21-117.44,284.49h232.56c-39.7-93.62-79.72-185.25-115.12-284.49Z"/>
  <path class="cls-1" d="M1851.51,994.51c1.32-152.83,.66-338.85,.66-492.01h0c0-153.16,.33-306.33-.33-459.49,0-20.84,4.96-27.13,26.46-26.8,104.87,.99,210.06,.33,315.26,.33,49.29,0,97.26,7.94,143.57,23.82,114.46,39.37,187.24,116.44,204.11,238.18,22.16,161.1-37.05,292.76-191.21,351.32-51.28,19.52-104.87,27.79-159.78,29.11-34.73,.66-69.47,.99-104.2-.33-18.53-.66-23.82,5.62-23.49,23.82,.66,92.96-.66,219.1,.99,312.05m-.66-659.73c0,42.34,.33,84.36-.33,126.37-.33,13.89,3.64,20.18,18.86,19.85,41.35-.99,82.37,.99,123.39-.99,74.1-3.97,122.4-53.26,127.36-128.02,5.62-81.71-33.74-138.28-107.51-154.49-48.96-10.59-98.91-2.98-148.2-5.29-14.56-.66-13.56,8.93-13.56,18.53,0,41.35,0,82.7,0,124.05h0Z"/>
  <path class="cls-1" d="M272.56,994.51c.66-247.11,0-523.44,.99-770.22,0-24.81-5.29-33.41-31.76-32.75-71.12,1.98-142.58,0-214.03,.99-19.85,.33-28.45-3.31-27.13-25.8,1.98-43,.99-86.34,.33-129.68-.33-15.22,4.3-20.84,20.51-20.51,237.52,.33,475.04,.33,712.23,0,19.85,0,22.83,7.94,21.5,28.45-2.32,38.37-2.98,77.08,0,115.45,1.98,25.14-2.32,33.08-25.8,32.75-73.11-1.32-146.55,.33-219.66-.99-21.5-.33-28.45,4.3-28.12,27.46,1.32,125.05,.66,249.76,.66,374.81h0c0,125.05-.33,274.9,.33,399.95"/>
  <path class="cls-1" d="M2920.35,1467.46h-199.81c-39.37,0-62.19-19.19-63.85-52.27-1.65-34.07,21.5-59.88,59.88-59.88,135.96-.99,272.25-.99,408.22,0,38.37,.33,62.52,25.8,61.2,59.21-1.32,32.75-25.47,52.93-63.18,53.26-67.15-.33-134.64-.33-202.45-.33h0Z"/>
  <path class="cls-1" d="M2876.68,1094.31c51.61,0,103.21-.33,154.49,0,38.37,.33,62.19,22.16,62.19,56.9,.33,35.07-22.16,59.55-60.21,60.21-105.86,.99-211.72,.99-317.58,0-38.04-.33-59.88-25.14-59.21-60.87,.66-35.73,23.16-56.24,62.52-56.24,52.93,0,105.53,0,157.8,0h0Z"/>
  <path class="cls-1" d="M4173.05,1741.43c.76-65.77-.17-156.11,.6-221.84,.2-17.44-4.39-34.59-13.34-49.57-47.24-79.1-94.16-158.39-141.03-237.71-21.87-37-43.72-74.01-65.59-111.01-3.77-6.38-7.18-12.96-13.26-23.91,51.99,0,100.9-.3,149.78,.2,11.74,.13,13.1,12.5,17.33,19.97,21.61,38.29,43.08,76.66,64.71,115.46,23.02,41.29,46.23,83.07,70.02,125.76,22.95-40.84,44.45-79.01,65.84-117.2,1.67-2.97,3.33-5.94,5-8.91,21.75-38.66,43.85-77.14,64.58-116.33,7.54-14.25,16.11-19.97,32.57-19.54,45.87,1.22,91.77,.43,137.67,.43l-3.9,6.28-8.43,12.16c-1.76,2.46-3.32,4.58-4.71,6.42-11.31,14.9-21.61,30.61-31.1,46.73-12.81,21.75-25.17,43-37.3,63.97-46.56,80.53-89.57,156.99-140.8,242.64-7.61,12.7-10.52,25.2-10.42,39.72,.46,67.6-.46,158.72,.66,226.28"/>
  <g>
    <path class="cls-1" d="M3400.52,1679.8c1.2-25.09-6.6-50.58-23.54-71.2-33.19-40.37-91.81-52.97-133.47-21.97-29.85,18.86-19.18,18.86-29.85,18.86-18.06,0-35.19-.03-53.72-.03,10.36-43.41,66.54-84.37,120.96-88.18,85.16-5.92,153.36,44.73,170.3,126.52,2.04,9.84,3.01,19.62,3.25,29.23,.06,2.47-.19,5.1-.24,7.54"/>
    <path class="cls-1" d="M3454.41,1668.04c.27,12.16-.89,24.47-3.4,36.56-16.93,81.75-85.09,132.38-170.21,126.46-54.4-3.8-110.55-44.74-120.91-88.13,18.53,0,35.65-.03,53.7-.03,10.67,0,0,0,29.84,18.85,41.64,30.99,100.24,18.39,133.41-21.96,16.93-20.61,24.73-46.1,23.53-71.17"/>
  </g>
  <path class="cls-1" d="M1981.06,1410.42c0-98.55,.86-197.13-.63-295.68-.36-23.61,7.97-27.12,28.71-27.05,175.37,.73,350.78,.36,526.15,.46,39.62,0,66.01,22.36,67.1,56.25,1.16,36.38-25.43,60.88-68.99,61.05-120.05,.5-240.09,.17-360.14,.17-34.83,0-52.25,17.63-52.25,52.88,0,109.83,.46,219.65-.43,329.48-.17,19.97,3.51,28.34,25.8,27.18,40.15-2.08,80.56,1.46,119.85-11.01,91.04-28.9,141.61-104.11,138.1-207.39-.99-29.7,8.63-54.07,34.39-69.12,24.51-14.32,50.2-13.29,74.61,2.02,19.78,12.4,28.8,30.79,30.49,53.91,12.63,175.8-95.18,313.44-269.19,341.09-92.2,14.65-185.36,3.97-278.02,7.01-18.49,.6-15.48-11.81-15.48-22.75-.03-99.51,0-199.02,0-298.5h-.07Z"/>
  <path class="cls-1" d="M3724.44,1742.05c.93-100.47,.43-227.21,.43-327.71v-33.96c-17.46,16.11-30.95,27.08-42.76,39.65-39.19,41.67-78.54,83.24-116.24,126.26-14.55,16.6-23.08,14.85-36.74-.56-37.9-42.83-77.02-93.71-116.14-135.41-11.44-12.2-24.51-22.88-40.97-38.1v125.37c-41.57-13.33-80.16-19.18-119.48-8.7-9.39,2.51-13.99,.69-13.99-10.12,.17-132.08,.1-264.13,.1-396.58l-.03,.03c97.46,95.67,193,197.55,287.09,291.77,16.47,16.47,24.21,20.21,42.43,1.32,86.74-89.75,175.31-177.72,263.37-266.19,6.32-6.35,11.18-14.82,21.1-17.69,6.94,7.34,3.54,16.14,3.57,23.91,.23,199.09-.3,427.65,.79,626.7"/>
  <path class="cls-1" d="M1194.81,1572.96c0,41.4-.17,79.5,.13,117.6,.07,8.76-3.37,13.79-11.28,17.16-127.12,54.14-321.18,65.55-439.91-74.94-91.21-107.91-107.31-232.35-52.38-360.93,54.7-128.08,159.7-188.83,296.74-195.78,62.6-3.17,122.96,7.77,180.83,32.94,15.84,6.88,23.28,14.78,22.42,33.07-1.55,33.67-.43,67.46-.43,104.87-52.22-24.14-104.37-39.32-159.9-44.12-125.57-10.81-225.11,75.96-229.87,202.82-4.56,121.96,89.99,215.12,214.86,211.82,61.45-1.65,119.75-16.57,178.78-44.51h0Z"/>
  <path class="cls-1" d="M315.13,1080.1l316.02,651.44c-48.02,0-92.37-.2-136.71,.13-11.64,.07-13.03,.02-16.37-7.19-12.24-26.32-24.64-52.58-35.78-79.37-5.49-13.16-13.23-17.63-27.51-17.46-66.6,.76-133.24,.69-199.85,.07-13.99-.13-22.06,3.31-27.35,17.36-9.52,25.37-22.06,49.61-32.08,74.81-5.85,14.72-13.26,21.99-30.79,21.3-39.98-1.55-80.03-.5-124.71-.5l315.16-660.62-.03,.03Zm-76.03,448.7h151.56c-25.27-61.74-49.64-121.37-75.47-184.53-26.09,63.26-50.8,123.19-76.1,184.53Z"/>
  <path class="cls-1" d="M1251.39,1731.6c105.33-220.78,208.77-437.56,315.06-660.35,25.8,53.84,48.75,101.73,71.7,149.64,77.62,162.18,154.8,324.52,233.28,486.27,11.38,23.45,19.65,24.77-17,24.77-32.81-1.32-65.71-1.06-98.52,0-14.39,.46-21.86-4.37-27.32-17.76-10.98-26.85-24.37-52.68-35.65-79.44-5.13-12.17-12.2-16.27-25.37-16.17-67.56,.63-135.13,.79-202.69-.1-15.01-.2-21.2,5.85-26.29,18.68-10.35,26.06-22.69,51.36-33.53,77.25-4.73,11.31-10.25,17.86-24.37,17.53-41.21-1.06-82.48-.36-129.31-.36v.03Zm315.1-396.65c-26.29,64.09-50.93,124.11-75.63,184.37h151.2c-25.27-61.64-49.61-121.07-75.57-184.37Z"/>
  <path class="cls-1" d="M3003.21,1731.6c-93.69,0-187.38,.1-281.07-.03-43.85-.07-66.31-19.91-66.27-58.01,.03-37.04,23.48-58.7,66.67-58.8,187.38-.36,374.76-.4,562.17,0,42.59,.1,65.48,22.65,64.79,60.59-.66,36.41-23.35,56.15-65.22,56.19-93.69,.13-187.38,.03-281.07,.03v.03Z"/>
  <path class="cls-1" d="M2919.51,1461.05c-66.6,0-133.24,.13-199.85-.07-39.22-.13-62.07-19.08-63.73-52.15-1.72-34.19,21.33-59.73,59.92-60.02,136.02-1.06,272.07-.99,408.12-.13,38.33,.23,62.64,25.8,61.21,59.1-1.39,32.57-25.33,53.08-63.03,53.21-67.56,.23-135.09,.07-202.66,.07h0Z"/>
  <path class="cls-1" d="M2875.89,1088.11c51.52,0,103.05-.2,154.54,.07,38.23,.2,62.04,22.29,62.27,57.01,.23,35.15-22.29,59.69-60.22,60.06-105.83,1.03-211.68,1.09-317.51-.13-37.93-.43-59.79-25.27-59.1-60.72,.73-35.68,23.15-56.05,62.64-56.22,52.45-.2,104.9-.07,157.35-.07h.03Z"/>
</svg>